<svg width="139" height="145" viewBox="0 0 139 145" fill="none" xmlns="http://www.w3.org/2000/svg">
<rect width="139" height="145" rx="6" fill="#B2748C" fill-opacity="0.42"/>
<path d="M32.65 22.2401L32 21.6801L31.35 22.2401C31 22.5001 24 28.6001 24 34.0001C24 36.1218 24.8429 38.1566 26.3431 39.6569C27.8434 41.1572 29.8783 42.0001 32 42.0001C34.1217 42.0001 36.1566 41.1572 37.6569 39.6569C39.1571 38.1566 40 36.1218 40 34.0001C40 28.6001 33 22.5001 32.65 22.2401ZM34.23 38.4701L33.34 36.6801C33.8381 36.4314 34.2572 36.049 34.5504 35.5757C34.8436 35.1024 34.9992 34.5568 35 34.0001H37C36.999 34.9289 36.7394 35.8391 36.2501 36.6286C35.7609 37.4182 35.0613 38.0558 34.23 38.4701Z" fill="#9C4A6B"/>
<path d="M26.258 61.002C26.7807 61.0953 27.224 61.3707 27.588 61.828C27.952 62.2853 28.134 62.8033 28.134 63.382C28.134 63.8767 28.0033 64.3247 27.742 64.726C27.49 65.118 27.1213 65.4307 26.636 65.664C26.1507 65.888 25.586 66 24.942 66H21.05V56.27H24.76C25.4227 56.27 25.992 56.382 26.468 56.606C26.944 56.83 27.3033 57.1333 27.546 57.516C27.7887 57.8893 27.91 58.3093 27.91 58.776C27.91 59.336 27.7607 59.8027 27.462 60.176C27.1633 60.5493 26.762 60.8247 26.258 61.002ZM22.646 60.358H24.62C25.1427 60.358 25.5487 60.2413 25.838 60.008C26.1367 59.7653 26.286 59.42 26.286 58.972C26.286 58.5333 26.1367 58.1927 25.838 57.95C25.5487 57.698 25.1427 57.572 24.62 57.572H22.646V60.358ZM24.802 64.698C25.3433 64.698 25.768 64.5673 26.076 64.306C26.384 64.0447 26.538 63.6807 26.538 63.214C26.538 62.738 26.3747 62.36 26.048 62.08C25.7213 61.8 25.2873 61.66 24.746 61.66H22.646V64.698H24.802ZM31.4644 55.64V66H29.8684V55.64H31.4644ZM36.9058 66.126C36.1778 66.126 35.5198 65.9627 34.9318 65.636C34.3438 65.3 33.8818 64.8333 33.5458 64.236C33.2098 63.6293 33.0418 62.9293 33.0418 62.136C33.0418 61.352 33.2144 60.6567 33.5598 60.05C33.9051 59.4433 34.3764 58.9767 34.9738 58.65C35.5711 58.3233 36.2384 58.16 36.9758 58.16C37.7131 58.16 38.3804 58.3233 38.9778 58.65C39.5751 58.9767 40.0464 59.4433 40.3918 60.05C40.7371 60.6567 40.9098 61.352 40.9098 62.136C40.9098 62.92 40.7324 63.6153 40.3778 64.222C40.0231 64.8287 39.5378 65.3 38.9218 65.636C38.3151 65.9627 37.6431 66.126 36.9058 66.126ZM36.9058 64.74C37.3164 64.74 37.6991 64.642 38.0538 64.446C38.4178 64.25 38.7118 63.956 38.9358 63.564C39.1598 63.172 39.2718 62.696 39.2718 62.136C39.2718 61.576 39.1644 61.1047 38.9498 60.722C38.7351 60.33 38.4504 60.036 38.0958 59.84C37.7411 59.644 37.3584 59.546 36.9478 59.546C36.5371 59.546 36.1544 59.644 35.7998 59.84C35.4544 60.036 35.1791 60.33 34.9738 60.722C34.7684 61.1047 34.6658 61.576 34.6658 62.136C34.6658 62.9667 34.8758 63.6107 35.2958 64.068C35.7251 64.516 36.2618 64.74 36.9058 64.74ZM45.8335 66.126C45.1055 66.126 44.4475 65.9627 43.8595 65.636C43.2715 65.3 42.8095 64.8333 42.4735 64.236C42.1375 63.6293 41.9695 62.9293 41.9695 62.136C41.9695 61.352 42.1422 60.6567 42.4875 60.05C42.8328 59.4433 43.3042 58.9767 43.9015 58.65C44.4988 58.3233 45.1662 58.16 45.9035 58.16C46.6408 58.16 47.3082 58.3233 47.9055 58.65C48.5028 58.9767 48.9742 59.4433 49.3195 60.05C49.6648 60.6567 49.8375 61.352 49.8375 62.136C49.8375 62.92 49.6602 63.6153 49.3055 64.222C48.9508 64.8287 48.4655 65.3 47.8495 65.636C47.2428 65.9627 46.5708 66.126 45.8335 66.126ZM45.8335 64.74C46.2442 64.74 46.6268 64.642 46.9815 64.446C47.3455 64.25 47.6395 63.956 47.8635 63.564C48.0875 63.172 48.1995 62.696 48.1995 62.136C48.1995 61.576 48.0922 61.1047 47.8775 60.722C47.6628 60.33 47.3782 60.036 47.0235 59.84C46.6688 59.644 46.2862 59.546 45.8755 59.546C45.4648 59.546 45.0822 59.644 44.7275 59.84C44.3822 60.036 44.1068 60.33 43.9015 60.722C43.6962 61.1047 43.5935 61.576 43.5935 62.136C43.5935 62.9667 43.8035 63.6107 44.2235 64.068C44.6528 64.516 45.1895 64.74 45.8335 64.74ZM50.8832 62.108C50.8832 61.3333 51.0419 60.6473 51.3592 60.05C51.6859 59.4527 52.1246 58.9907 52.6752 58.664C53.2352 58.328 53.8559 58.16 54.5372 58.16C55.0412 58.16 55.5359 58.272 56.0212 58.496C56.5159 58.7107 56.9079 59 57.1972 59.364V55.64H58.8072V66H57.1972V64.838C56.9359 65.2113 56.5719 65.5193 56.1052 65.762C55.6479 66.0047 55.1206 66.126 54.5232 66.126C53.8512 66.126 53.2352 65.958 52.6752 65.622C52.1246 65.2767 51.6859 64.8007 51.3592 64.194C51.0419 63.578 50.8832 62.8827 50.8832 62.108ZM57.1972 62.136C57.1972 61.604 57.0852 61.142 56.8612 60.75C56.6466 60.358 56.3619 60.0593 56.0072 59.854C55.6526 59.6487 55.2699 59.546 54.8592 59.546C54.4486 59.546 54.0659 59.6487 53.7112 59.854C53.3566 60.05 53.0672 60.344 52.8432 60.736C52.6286 61.1187 52.5212 61.576 52.5212 62.108C52.5212 62.64 52.6286 63.1067 52.8432 63.508C53.0672 63.9093 53.3566 64.2173 53.7112 64.432C54.0752 64.6373 54.4579 64.74 54.8592 64.74C55.2699 64.74 55.6526 64.6373 56.0072 64.432C56.3619 64.2267 56.6466 63.928 56.8612 63.536C57.0852 63.1347 57.1972 62.668 57.1972 62.136ZM71.5822 59.07C71.3302 58.5847 70.9802 58.2207 70.5322 57.978C70.0842 57.726 69.5662 57.6 68.9782 57.6C68.3342 57.6 67.7602 57.7447 67.2562 58.034C66.7522 58.3233 66.3556 58.734 66.0662 59.266C65.7862 59.798 65.6462 60.414 65.6462 61.114C65.6462 61.814 65.7862 62.4347 66.0662 62.976C66.3556 63.508 66.7522 63.9187 67.2562 64.208C67.7602 64.4973 68.3342 64.642 68.9782 64.642C69.8462 64.642 70.5509 64.3993 71.0922 63.914C71.6336 63.4287 71.9649 62.7707 72.0862 61.94H68.4322V60.666H73.7942V61.912C73.6916 62.668 73.4209 63.3633 72.9822 63.998C72.5529 64.6327 71.9882 65.1413 71.2882 65.524C70.5976 65.8973 69.8276 66.084 68.9782 66.084C68.0636 66.084 67.2282 65.874 66.4722 65.454C65.7162 65.0247 65.1142 64.432 64.6662 63.676C64.2276 62.92 64.0082 62.066 64.0082 61.114C64.0082 60.162 64.2276 59.308 64.6662 58.552C65.1142 57.796 65.7162 57.208 66.4722 56.788C67.2376 56.3587 68.0729 56.144 68.9782 56.144C70.0142 56.144 70.9336 56.4007 71.7362 56.914C72.5482 57.418 73.1362 58.1367 73.5002 59.07H71.5822ZM76.9644 59.406C77.1977 59.014 77.5057 58.7107 77.8884 58.496C78.2804 58.272 78.7424 58.16 79.2744 58.16V59.812H78.8684C78.243 59.812 77.767 59.9707 77.4404 60.288C77.123 60.6053 76.9644 61.156 76.9644 61.94V66H75.3684V58.286H76.9644V59.406ZM84.0874 66.126C83.3594 66.126 82.7014 65.9627 82.1134 65.636C81.5254 65.3 81.0634 64.8333 80.7274 64.236C80.3914 63.6293 80.2234 62.9293 80.2234 62.136C80.2234 61.352 80.3961 60.6567 80.7414 60.05C81.0867 59.4433 81.5581 58.9767 82.1554 58.65C82.7527 58.3233 83.4201 58.16 84.1574 58.16C84.8947 58.16 85.5621 58.3233 86.1594 58.65C86.7567 58.9767 87.2281 59.4433 87.5734 60.05C87.9187 60.6567 88.0914 61.352 88.0914 62.136C88.0914 62.92 87.9141 63.6153 87.5594 64.222C87.2047 64.8287 86.7194 65.3 86.1034 65.636C85.4967 65.9627 84.8247 66.126 84.0874 66.126ZM84.0874 64.74C84.4981 64.74 84.8807 64.642 85.2354 64.446C85.5994 64.25 85.8934 63.956 86.1174 63.564C86.3414 63.172 86.4534 62.696 86.4534 62.136C86.4534 61.576 86.3461 61.1047 86.1314 60.722C85.9167 60.33 85.6321 60.036 85.2774 59.84C84.9227 59.644 84.5401 59.546 84.1294 59.546C83.7187 59.546 83.3361 59.644 82.9814 59.84C82.6361 60.036 82.3607 60.33 82.1554 60.722C81.9501 61.1047 81.8474 61.576 81.8474 62.136C81.8474 62.9667 82.0574 63.6107 82.4774 64.068C82.9067 64.516 83.4434 64.74 84.0874 64.74ZM96.6551 58.286V66H95.0591V65.09C94.8071 65.4073 94.4758 65.6593 94.0651 65.846C93.6638 66.0233 93.2345 66.112 92.7771 66.112C92.1705 66.112 91.6245 65.986 91.1391 65.734C90.6631 65.482 90.2851 65.1087 90.0051 64.614C89.7345 64.1193 89.5991 63.522 89.5991 62.822V58.286H91.1811V62.584C91.1811 63.2747 91.3538 63.8067 91.6991 64.18C92.0445 64.544 92.5158 64.726 93.1131 64.726C93.7105 64.726 94.1818 64.544 94.5271 64.18C94.8818 63.8067 95.0591 63.2747 95.0591 62.584V58.286H96.6551ZM100.357 59.42C100.628 59.0653 100.996 58.7667 101.463 58.524C101.93 58.2813 102.457 58.16 103.045 58.16C103.717 58.16 104.328 58.328 104.879 58.664C105.439 58.9907 105.878 59.4527 106.195 60.05C106.512 60.6473 106.671 61.3333 106.671 62.108C106.671 62.8827 106.512 63.578 106.195 64.194C105.878 64.8007 105.439 65.2767 104.879 65.622C104.328 65.958 103.717 66.126 103.045 66.126C102.457 66.126 101.934 66.0093 101.477 65.776C101.02 65.5333 100.646 65.2347 100.357 64.88V69.668H98.7609V58.286H100.357V59.42ZM105.047 62.108C105.047 61.576 104.935 61.1187 104.711 60.736C104.496 60.344 104.207 60.05 103.843 59.854C103.488 59.6487 103.106 59.546 102.695 59.546C102.294 59.546 101.911 59.6487 101.547 59.854C101.192 60.0593 100.903 60.358 100.679 60.75C100.464 61.142 100.357 61.604 100.357 62.136C100.357 62.668 100.464 63.1347 100.679 63.536C100.903 63.928 101.192 64.2267 101.547 64.432C101.911 64.6373 102.294 64.74 102.695 64.74C103.106 64.74 103.488 64.6373 103.843 64.432C104.207 64.2173 104.496 63.9093 104.711 63.508C104.935 63.1067 105.047 62.64 105.047 62.108Z" fill="#221F1F"/>
<path d="M35.153 108.74H26.423L24.923 113H21.353L28.823 92.12H32.783L40.253 113H36.653L35.153 108.74ZM34.193 105.95L30.803 96.26L27.383 105.95H34.193ZM59.611 103.61H53.551V109.82H50.371V103.61H44.311V100.73H50.371V94.52H53.551V100.73H59.611V103.61Z" fill="#221F1F"/>
</svg>
