<svg width="139" height="145" viewBox="0 0 139 145" fill="none" xmlns="http://www.w3.org/2000/svg">
<rect width="139" height="145" rx="6" fill="#FBF0DC"/>
<path d="M33.72 56.27L30.836 66H29.03L26.986 58.636L24.816 66L23.024 66.014L20.266 56.27H21.96L23.976 64.194L26.16 56.27H27.952L29.982 64.152L32.012 56.27H33.72ZM42.1063 61.954C42.1063 62.2433 42.0877 62.5047 42.0503 62.738H36.1563C36.203 63.354 36.4317 63.8487 36.8423 64.222C37.253 64.5953 37.757 64.782 38.3543 64.782C39.213 64.782 39.8197 64.4227 40.1743 63.704H41.8963C41.663 64.4133 41.2383 64.9967 40.6223 65.454C40.0157 65.902 39.2597 66.126 38.3543 66.126C37.617 66.126 36.9543 65.9627 36.3663 65.636C35.7877 65.3 35.3303 64.8333 34.9943 64.236C34.6677 63.6293 34.5043 62.9293 34.5043 62.136C34.5043 61.3427 34.663 60.6473 34.9803 60.05C35.307 59.4433 35.7597 58.9767 36.3383 58.65C36.9263 58.3233 37.5983 58.16 38.3543 58.16C39.0823 58.16 39.731 58.3187 40.3003 58.636C40.8697 58.9533 41.313 59.4013 41.6303 59.98C41.9477 60.5493 42.1063 61.2073 42.1063 61.954ZM40.4403 61.45C40.431 60.862 40.221 60.3907 39.8103 60.036C39.3997 59.6813 38.891 59.504 38.2843 59.504C37.7337 59.504 37.2623 59.6813 36.8703 60.036C36.4783 60.3813 36.245 60.8527 36.1703 61.45H40.4403ZM44.489 57.264C44.1996 57.264 43.957 57.166 43.761 56.97C43.565 56.774 43.467 56.5313 43.467 56.242C43.467 55.9527 43.565 55.71 43.761 55.514C43.957 55.318 44.1996 55.22 44.489 55.22C44.769 55.22 45.007 55.318 45.203 55.514C45.399 55.71 45.497 55.9527 45.497 56.242C45.497 56.5313 45.399 56.774 45.203 56.97C45.007 57.166 44.769 57.264 44.489 57.264ZM45.273 58.286V66H43.677V58.286H45.273ZM50.4764 58.16C51.0737 58.16 51.601 58.2813 52.0584 58.524C52.525 58.7573 52.889 59.0513 53.1504 59.406V58.286H54.7604V66.126C54.7604 66.8353 54.611 67.4653 54.3124 68.016C54.0137 68.576 53.5797 69.0147 53.0104 69.332C52.4504 69.6493 51.7784 69.808 50.9944 69.808C49.949 69.808 49.081 69.5607 48.3904 69.066C47.6997 68.5807 47.3077 67.918 47.2144 67.078H48.7964C48.9177 67.4793 49.1744 67.8013 49.5664 68.044C49.9677 68.296 50.4437 68.422 50.9944 68.422C51.6384 68.422 52.1564 68.226 52.5484 67.834C52.9497 67.442 53.1504 66.8727 53.1504 66.126V64.838C52.8797 65.202 52.511 65.51 52.0444 65.762C51.587 66.0047 51.0644 66.126 50.4764 66.126C49.8044 66.126 49.1884 65.958 48.6284 65.622C48.0777 65.2767 47.639 64.8007 47.3124 64.194C46.995 63.578 46.8364 62.8827 46.8364 62.108C46.8364 61.3333 46.995 60.6473 47.3124 60.05C47.639 59.4527 48.0777 58.9907 48.6284 58.664C49.1884 58.328 49.8044 58.16 50.4764 58.16ZM53.1504 62.136C53.1504 61.604 53.0384 61.142 52.8144 60.75C52.5997 60.358 52.315 60.0593 51.9604 59.854C51.6057 59.6487 51.223 59.546 50.8124 59.546C50.4017 59.546 50.019 59.6487 49.6644 59.854C49.3097 60.05 49.0204 60.344 48.7964 60.736C48.5817 61.1187 48.4744 61.576 48.4744 62.108C48.4744 62.64 48.5817 63.1067 48.7964 63.508C49.0204 63.9093 49.3097 64.2173 49.6644 64.432C50.0284 64.6373 50.411 64.74 50.8124 64.74C51.223 64.74 51.6057 64.6373 51.9604 64.432C52.315 64.2267 52.5997 63.928 52.8144 63.536C53.0384 63.1347 53.1504 62.668 53.1504 62.136ZM60.8466 58.16C61.4346 58.16 61.9573 58.286 62.4146 58.538C62.8813 58.79 63.2453 59.1633 63.5066 59.658C63.7773 60.1527 63.9126 60.75 63.9126 61.45V66H62.3306V61.688C62.3306 60.9973 62.158 60.47 61.8126 60.106C61.4673 59.7327 60.996 59.546 60.3986 59.546C59.8013 59.546 59.3253 59.7327 58.9706 60.106C58.6253 60.47 58.4526 60.9973 58.4526 61.688V66H56.8566V55.64H58.4526V59.182C58.7233 58.8553 59.064 58.6033 59.4746 58.426C59.8946 58.2487 60.352 58.16 60.8466 58.16ZM67.8104 59.588V63.858C67.8104 64.1473 67.8758 64.3573 68.0064 64.488C68.1464 64.6093 68.3798 64.67 68.7064 64.67H69.6864V66H68.4264C67.7078 66 67.1571 65.832 66.7744 65.496C66.3918 65.16 66.2004 64.614 66.2004 63.858V59.588H65.2904V58.286H66.2004V56.368H67.8104V58.286H69.6864V59.588H67.8104Z" fill="#221F1F"/>
<path d="M21.4564 94.25V91.13H27.6964V113H24.2464V94.25H21.4564ZM32.3947 101.78C32.3947 98.32 32.9747 95.62 34.1347 93.68C35.3147 91.72 37.3347 90.74 40.1947 90.74C43.0547 90.74 45.0647 91.72 46.2247 93.68C47.4047 95.62 47.9947 98.32 47.9947 101.78C47.9947 105.28 47.4047 108.02 46.2247 110C45.0647 111.96 43.0547 112.94 40.1947 112.94C37.3347 112.94 35.3147 111.96 34.1347 110C32.9747 108.02 32.3947 105.28 32.3947 101.78ZM44.6347 101.78C44.6347 100.16 44.5247 98.79 44.3047 97.67C44.1047 96.55 43.6847 95.64 43.0447 94.94C42.4047 94.22 41.4547 93.86 40.1947 93.86C38.9347 93.86 37.9847 94.22 37.3447 94.94C36.7047 95.64 36.2747 96.55 36.0547 97.67C35.8547 98.79 35.7547 100.16 35.7547 101.78C35.7547 103.46 35.8547 104.87 36.0547 106.01C36.2547 107.15 36.6747 108.07 37.3147 108.77C37.9747 109.47 38.9347 109.82 40.1947 109.82C41.4547 109.82 42.4047 109.47 43.0447 108.77C43.7047 108.07 44.1347 107.15 44.3347 106.01C44.5347 104.87 44.6347 103.46 44.6347 101.78ZM51.5535 96.53C51.6735 94.67 52.3835 93.22 53.6835 92.18C55.0035 91.14 56.6835 90.62 58.7235 90.62C60.1235 90.62 61.3335 90.87 62.3535 91.37C63.3735 91.87 64.1435 92.55 64.6635 93.41C65.1835 94.27 65.4435 95.24 65.4435 96.32C65.4435 97.56 65.1135 98.62 64.4535 99.5C63.7935 100.38 63.0035 100.97 62.0835 101.27V101.39C63.2635 101.75 64.1835 102.41 64.8435 103.37C65.5035 104.31 65.8335 105.52 65.8335 107C65.8335 108.18 65.5635 109.23 65.0235 110.15C64.4835 111.07 63.6835 111.8 62.6235 112.34C61.5635 112.86 60.2935 113.12 58.8135 113.12C56.6535 113.12 54.8735 112.57 53.4735 111.47C52.0935 110.35 51.3535 108.75 51.2535 106.67H54.5535C54.6335 107.73 55.0435 108.6 55.7835 109.28C56.5235 109.94 57.5235 110.27 58.7835 110.27C60.0035 110.27 60.9435 109.94 61.6035 109.28C62.2635 108.6 62.5935 107.73 62.5935 106.67C62.5935 105.27 62.1435 104.28 61.2435 103.7C60.3635 103.1 59.0035 102.8 57.1635 102.8H56.3835V99.98H57.1935C58.8135 99.96 60.0435 99.69 60.8835 99.17C61.7435 98.65 62.1735 97.83 62.1735 96.71C62.1735 95.75 61.8635 94.99 61.2435 94.43C60.6235 93.85 59.7435 93.56 58.6035 93.56C57.4835 93.56 56.6135 93.85 55.9935 94.43C55.3735 94.99 55.0035 95.69 54.8835 96.53H51.5535ZM73.296 90.8V113H69.876V90.8H73.296ZM81.2061 98.93C81.7861 98.13 82.5761 97.48 83.5761 96.98C84.5961 96.46 85.7261 96.2 86.9661 96.2C88.4261 96.2 89.7461 96.55 90.9261 97.25C92.1061 97.95 93.0361 98.95 93.7161 100.25C94.3961 101.53 94.7361 103 94.7361 104.66C94.7361 106.32 94.3961 107.81 93.7161 109.13C93.0361 110.43 92.0961 111.45 90.8961 112.19C89.7161 112.91 88.4061 113.27 86.9661 113.27C85.6861 113.27 84.5461 113.02 83.5461 112.52C82.5661 112.02 81.7861 111.38 81.2061 110.6V113H77.7861V90.8H81.2061V98.93ZM91.2561 104.66C91.2561 103.52 91.0161 102.54 90.5361 101.72C90.0761 100.88 89.4561 100.25 88.6761 99.83C87.9161 99.39 87.0961 99.17 86.2161 99.17C85.3561 99.17 84.5361 99.39 83.7561 99.83C82.9961 100.27 82.3761 100.91 81.8961 101.75C81.4361 102.59 81.2061 103.58 81.2061 104.72C81.2061 105.86 81.4361 106.86 81.8961 107.72C82.3761 108.56 82.9961 109.2 83.7561 109.64C84.5361 110.08 85.3561 110.3 86.2161 110.3C87.0961 110.3 87.9161 110.08 88.6761 109.64C89.4561 109.18 90.0761 108.52 90.5361 107.66C91.0161 106.8 91.2561 105.8 91.2561 104.66ZM104.118 113.27C102.818 113.27 101.648 113.04 100.608 112.58C99.5882 112.1 98.7782 111.46 98.1782 110.66C97.5782 109.84 97.2582 108.93 97.2182 107.93H100.758C100.818 108.63 101.148 109.22 101.748 109.7C102.368 110.16 103.138 110.39 104.058 110.39C105.018 110.39 105.758 110.21 106.278 109.85C106.818 109.47 107.088 108.99 107.088 108.41C107.088 107.79 106.788 107.33 106.188 107.03C105.608 106.73 104.678 106.4 103.398 106.04C102.158 105.7 101.148 105.37 100.368 105.05C99.5882 104.73 98.9082 104.24 98.3282 103.58C97.7682 102.92 97.4882 102.05 97.4882 100.97C97.4882 100.09 97.7482 99.29 98.2682 98.57C98.7882 97.83 99.5282 97.25 100.488 96.83C101.468 96.41 102.588 96.2 103.848 96.2C105.728 96.2 107.238 96.68 108.378 97.64C109.538 98.58 110.158 99.87 110.238 101.51H106.818C106.758 100.77 106.458 100.18 105.918 99.74C105.378 99.3 104.648 99.08 103.728 99.08C102.828 99.08 102.138 99.25 101.658 99.59C101.178 99.93 100.938 100.38 100.938 100.94C100.938 101.38 101.098 101.75 101.418 102.05C101.738 102.35 102.128 102.59 102.588 102.77C103.048 102.93 103.728 103.14 104.628 103.4C105.828 103.72 106.808 104.05 107.568 104.39C108.348 104.71 109.018 105.19 109.578 105.83C110.138 106.47 110.428 107.32 110.448 108.38C110.448 109.32 110.188 110.16 109.668 110.9C109.148 111.64 108.408 112.22 107.448 112.64C106.508 113.06 105.398 113.27 104.118 113.27Z" fill="#221F1F"/>
<g clip-path="url(#clip0_1_1927)">
<path d="M23.6325 20.8651L22.8016 21.0117L23.2386 23.4907C22.9915 23.5292 22.7447 23.5689 22.498 23.6098L22.1932 21.8806L21.3623 22.027L21.6665 23.7518C21.3976 23.7992 21.1289 23.8478 20.8604 23.8977L21.0147 24.7272C21.2832 24.6772 21.549 24.6292 21.8129 24.5826L22.1437 26.4585L22.9746 26.3121L22.6446 24.4404C22.8932 24.3991 23.1401 24.3595 23.3851 24.3213L23.8434 26.9205L24.6744 26.774L24.2199 24.1963C24.6175 24.1393 25.0104 24.0868 25.4002 24.0379C26.1286 26.2124 27.0266 28.7252 28.5378 30.3402C28.9466 31.7652 29 32.5625 30.0575 34.5312C29 36.3125 28.25 39.3125 27.838 42.0781L25.588 42.3593V43.0625H29C29.75 40.8125 32 36.3125 32 36.3125C32 36.3125 34.25 40.8125 35 43.0625H38.4121V42.3593L36.1621 42.0781C35.75 39.3125 35 36.3125 33.7813 34.5312C35 32.5625 34.9145 31.7382 35.4608 30.3417C36.9725 28.7267 37.8711 26.2131 38.5999 24.038C38.9896 24.0868 39.3826 24.1393 39.7802 24.1964L39.3257 26.7741L40.1567 26.9205L40.615 24.3213C40.8601 24.3595 41.1069 24.3991 41.3556 24.4404L41.0255 26.3121L41.8565 26.4586L42.1872 24.5826C42.4511 24.6292 42.7169 24.6772 42.9854 24.7272L43.1397 23.8977C42.8688 23.8473 42.6003 23.7988 42.3337 23.7517L42.6379 22.0269L41.807 21.8804L41.5021 23.6097C41.2535 23.5684 41.0066 23.5287 40.7615 23.4906L41.1985 21.0116L40.3676 20.865L39.9267 23.3658C37.1554 22.9676 34.5773 22.7675 32 22.7675C29.4228 22.7675 26.8446 22.9676 24.0734 23.3659L23.6325 20.8651ZM32 23.6084C33.6655 23.6084 35.3314 23.6942 37.0542 23.8645C36.3941 25.4984 35.2516 27.31 34.0915 28.6442C33.6075 29.3407 32.8602 29.7968 32 29.7968C31.1399 29.7968 30.3925 29.3407 29.9085 28.6442C28.7484 27.31 27.606 25.4984 26.9459 23.8645C28.6685 23.6942 30.3345 23.6084 32 23.6084ZM32 24.5468C31.0234 24.5468 30.1719 25.4956 30.1719 26.75C30.1719 28.0043 31.0234 28.9531 32 28.9531C32.9767 28.9531 33.8281 28.0043 33.8281 26.75C33.8281 25.4956 32.9767 24.5468 32 24.5468Z" fill="#D2B47D"/>
</g>
<defs>
<clipPath id="clip0_1_1927">
<rect width="24" height="24" fill="white" transform="translate(20 20)"/>
</clipPath>
</defs>
</svg>
