<svg width="300" height="131" viewBox="0 0 300 131" fill="none" xmlns="http://www.w3.org/2000/svg">
<rect width="300" height="131" rx="6" fill="#407CE2" fill-opacity="0.19"/>
<path d="M30.8368 26.832V38H28.5968V33.248H23.8128V38H21.5728V26.832H23.8128V31.424H28.5968V26.832H30.8368ZM41.2815 33.376C41.2815 33.696 41.2602 33.984 41.2175 34.24H34.7375C34.7908 34.88 35.0148 35.3813 35.4095 35.744C35.8042 36.1067 36.2895 36.288 36.8655 36.288C37.6975 36.288 38.2895 35.9307 38.6415 35.216H41.0575C40.8015 36.0693 40.3108 36.7733 39.5855 37.328C38.8602 37.872 37.9695 38.144 36.9135 38.144C36.0602 38.144 35.2922 37.9573 34.6095 37.584C33.9375 37.2 33.4095 36.6613 33.0255 35.968C32.6522 35.2747 32.4655 34.4747 32.4655 33.568C32.4655 32.6507 32.6522 31.8453 33.0255 31.152C33.3988 30.4587 33.9215 29.9253 34.5935 29.552C35.2655 29.1787 36.0388 28.992 36.9135 28.992C37.7562 28.992 38.5082 29.1733 39.1695 29.536C39.8415 29.8987 40.3588 30.416 40.7215 31.088C41.0948 31.7493 41.2815 32.512 41.2815 33.376ZM38.9615 32.736C38.9508 32.16 38.7428 31.7013 38.3375 31.36C37.9322 31.008 37.4362 30.832 36.8495 30.832C36.2948 30.832 35.8255 31.0027 35.4415 31.344C35.0682 31.6747 34.8388 32.1387 34.7535 32.736H38.9615ZM42.3405 33.536C42.3405 32.64 42.5165 31.8453 42.8685 31.152C43.2312 30.4587 43.7165 29.9253 44.3245 29.552C44.9432 29.1787 45.6312 28.992 46.3885 28.992C47.0498 28.992 47.6258 29.1253 48.1165 29.392C48.6178 29.6587 49.0178 29.9947 49.3165 30.4V29.136H51.5725V38H49.3165V36.704C49.0285 37.12 48.6285 37.4667 48.1165 37.744C47.6152 38.0107 47.0338 38.144 46.3725 38.144C45.6258 38.144 44.9432 37.952 44.3245 37.568C43.7165 37.184 43.2312 36.6453 42.8685 35.952C42.5165 35.248 42.3405 34.4427 42.3405 33.536ZM49.3165 33.568C49.3165 33.024 49.2098 32.56 48.9965 32.176C48.7832 31.7813 48.4952 31.4827 48.1325 31.28C47.7698 31.0667 47.3805 30.96 46.9645 30.96C46.5485 30.96 46.1645 31.0613 45.8125 31.264C45.4605 31.4667 45.1725 31.7653 44.9485 32.16C44.7352 32.544 44.6285 33.0027 44.6285 33.536C44.6285 34.0693 44.7352 34.5387 44.9485 34.944C45.1725 35.3387 45.4605 35.6427 45.8125 35.856C46.1752 36.0693 46.5592 36.176 46.9645 36.176C47.3805 36.176 47.7698 36.0747 48.1325 35.872C48.4952 35.6587 48.7832 35.36 48.9965 34.976C49.2098 34.5813 49.3165 34.112 49.3165 33.568ZM56.0003 30.512C56.2883 30.0427 56.6616 29.6747 57.1203 29.408C57.5896 29.1413 58.1229 29.008 58.7203 29.008V31.36H58.1283C57.4243 31.36 56.8909 31.5253 56.5283 31.856C56.1763 32.1867 56.0003 32.7627 56.0003 33.584V38H53.7603V29.136H56.0003V30.512ZM62.837 30.976V35.264C62.837 35.5627 62.9063 35.7813 63.045 35.92C63.1943 36.048 63.4397 36.112 63.781 36.112H64.821V38H63.413C61.525 38 60.581 37.0827 60.581 35.248V30.976H59.525V29.136H60.581V26.944H62.837V29.136H64.821V30.976H62.837ZM72.4846 30.512C72.7726 30.0427 73.146 29.6747 73.6046 29.408C74.074 29.1413 74.6073 29.008 75.2046 29.008V31.36H74.6126C73.9086 31.36 73.3753 31.5253 73.0126 31.856C72.6606 32.1867 72.4846 32.7627 72.4846 33.584V38H70.2446V29.136H72.4846V30.512ZM76.1374 33.536C76.1374 32.64 76.3134 31.8453 76.6654 31.152C77.028 30.4587 77.5134 29.9253 78.1214 29.552C78.74 29.1787 79.428 28.992 80.1854 28.992C80.8467 28.992 81.4227 29.1253 81.9134 29.392C82.4147 29.6587 82.8147 29.9947 83.1134 30.4V29.136H85.3694V38H83.1134V36.704C82.8254 37.12 82.4254 37.4667 81.9134 37.744C81.412 38.0107 80.8307 38.144 80.1694 38.144C79.4227 38.144 78.74 37.952 78.1214 37.568C77.5134 37.184 77.028 36.6453 76.6654 35.952C76.3134 35.248 76.1374 34.4427 76.1374 33.536ZM83.1134 33.568C83.1134 33.024 83.0067 32.56 82.7934 32.176C82.58 31.7813 82.292 31.4827 81.9294 31.28C81.5667 31.0667 81.1774 30.96 80.7614 30.96C80.3454 30.96 79.9614 31.0613 79.6094 31.264C79.2574 31.4667 78.9694 31.7653 78.7454 32.16C78.532 32.544 78.4254 33.0027 78.4254 33.536C78.4254 34.0693 78.532 34.5387 78.7454 34.944C78.9694 35.3387 79.2574 35.6427 79.6094 35.856C79.972 36.0693 80.356 36.176 80.7614 36.176C81.1774 36.176 81.5667 36.0747 81.9294 35.872C82.292 35.6587 82.58 35.36 82.7934 34.976C83.0067 34.5813 83.1134 34.112 83.1134 33.568ZM90.1651 30.976V35.264C90.1651 35.5627 90.2345 35.7813 90.3731 35.92C90.5225 36.048 90.7678 36.112 91.1091 36.112H92.1491V38H90.7411C88.8531 38 87.9091 37.0827 87.9091 35.248V30.976H86.8531V29.136H87.9091V26.944H90.1651V29.136H92.1491V30.976H90.1651ZM102 33.376C102 33.696 101.979 33.984 101.936 34.24H95.4563C95.5096 34.88 95.7336 35.3813 96.1283 35.744C96.5229 36.1067 97.0083 36.288 97.5843 36.288C98.4163 36.288 99.0083 35.9307 99.3603 35.216H101.776C101.52 36.0693 101.03 36.7733 100.304 37.328C99.5789 37.872 98.6883 38.144 97.6323 38.144C96.7789 38.144 96.0109 37.9573 95.3283 37.584C94.6563 37.2 94.1283 36.6613 93.7443 35.968C93.3709 35.2747 93.1842 34.4747 93.1842 33.568C93.1842 32.6507 93.3709 31.8453 93.7443 31.152C94.1176 30.4587 94.6403 29.9253 95.3123 29.552C95.9843 29.1787 96.7576 28.992 97.6323 28.992C98.4749 28.992 99.2269 29.1733 99.8883 29.536C100.56 29.8987 101.078 30.416 101.44 31.088C101.814 31.7493 102 32.512 102 33.376ZM99.6803 32.736C99.6696 32.16 99.4616 31.7013 99.0563 31.36C98.6509 31.008 98.1549 30.832 97.5683 30.832C97.0136 30.832 96.5443 31.0027 96.1603 31.344C95.7869 31.6747 95.5576 32.1387 95.4723 32.736H99.6803Z" fill="#221F1F"/>
<path d="M32.1728 88.52C32.4715 90.1627 33.1435 91.432 34.1888 92.328C35.2715 93.1867 36.7088 93.616 38.5008 93.616C40.8155 93.616 42.4955 92.664 43.5408 90.76C44.5861 88.8187 45.1088 85.5707 45.1088 81.016C44.2501 82.2107 43.0368 83.144 41.4688 83.816C39.9381 84.488 38.2768 84.824 36.4848 84.824C34.0955 84.824 31.9301 84.3387 29.9888 83.368C28.0848 82.36 26.5728 80.8853 25.4528 78.944C24.3328 76.9653 23.7728 74.576 23.7728 71.776C23.7728 67.632 25.0048 64.3467 27.4688 61.92C29.9328 59.456 33.2928 58.224 37.5488 58.224C42.8501 58.224 46.5835 59.9227 48.7488 63.32C50.9515 66.7173 52.0528 71.832 52.0528 78.664C52.0528 83.5173 51.6235 87.4933 50.7648 90.592C49.9435 93.6907 48.5061 96.0427 46.4528 97.648C44.4368 99.2533 41.6741 100.056 38.1648 100.056C35.4021 100.056 33.0501 99.5333 31.1088 98.488C29.1675 97.4053 27.6741 96.0053 26.6288 94.288C25.6208 92.5333 25.0421 90.6107 24.8928 88.52H32.1728ZM38.1088 78.44C40.0501 78.44 41.5808 77.8427 42.7008 76.648C43.8208 75.4533 44.3808 73.848 44.3808 71.832C44.3808 69.6293 43.7835 67.9307 42.5888 66.736C41.4315 65.504 39.8448 64.888 37.8288 64.888C35.8128 64.888 34.2075 65.5227 33.0128 66.792C31.8555 68.024 31.2768 69.6667 31.2768 71.72C31.2768 73.6987 31.8368 75.3227 32.9568 76.592C34.1141 77.824 35.8315 78.44 38.1088 78.44ZM84.1395 65.112L69.2435 100H61.2915L76.2995 66.008H57.1475V59.288H84.1395V65.112Z" fill="#221F1F"/>
<path d="M88.6791 98.756C88.9405 98.2987 89.3231 97.9253 89.8271 97.636C90.3311 97.3467 90.9051 97.202 91.5491 97.202C92.2398 97.202 92.8605 97.3653 93.4111 97.692C93.9618 98.0187 94.3958 98.4807 94.7131 99.078C95.0305 99.666 95.1891 100.352 95.1891 101.136C95.1891 101.911 95.0305 102.601 94.7131 103.208C94.3958 103.815 93.9571 104.286 93.3971 104.622C92.8465 104.958 92.2305 105.126 91.5491 105.126C90.8865 105.126 90.3031 104.981 89.7991 104.692C89.3045 104.403 88.9311 104.034 88.6791 103.586V105H87.4051V94.64H88.6791V98.756ZM93.8871 101.136C93.8871 100.557 93.7705 100.053 93.5371 99.624C93.3038 99.1947 92.9865 98.868 92.5851 98.644C92.1931 98.42 91.7591 98.308 91.2831 98.308C90.8165 98.308 90.3825 98.4247 89.9811 98.658C89.5891 98.882 89.2718 99.2133 89.0291 99.652C88.7958 100.081 88.6791 100.581 88.6791 101.15C88.6791 101.729 88.7958 102.237 89.0291 102.676C89.2718 103.105 89.5891 103.437 89.9811 103.67C90.3825 103.894 90.8165 104.006 91.2831 104.006C91.7591 104.006 92.1931 103.894 92.5851 103.67C92.9865 103.437 93.3038 103.105 93.5371 102.676C93.7705 102.237 93.8871 101.724 93.8871 101.136ZM98.1401 98.742C98.3921 98.3033 98.7654 97.9393 99.2601 97.65C99.7641 97.3513 100.347 97.202 101.01 97.202C101.691 97.202 102.307 97.3653 102.858 97.692C103.418 98.0187 103.857 98.4807 104.174 99.078C104.491 99.666 104.65 100.352 104.65 101.136C104.65 101.911 104.491 102.601 104.174 103.208C103.857 103.815 103.418 104.286 102.858 104.622C102.307 104.958 101.691 105.126 101.01 105.126C100.357 105.126 99.7781 104.981 99.2741 104.692C98.7794 104.393 98.4014 104.025 98.1401 103.586V108.64H96.8661V97.328H98.1401V98.742ZM103.348 101.136C103.348 100.557 103.231 100.053 102.998 99.624C102.765 99.1947 102.447 98.868 102.046 98.644C101.654 98.42 101.22 98.308 100.744 98.308C100.277 98.308 99.8434 98.4247 99.4421 98.658C99.0501 98.882 98.7328 99.2133 98.4901 99.652C98.2568 100.081 98.1401 100.581 98.1401 101.15C98.1401 101.729 98.2568 102.237 98.4901 102.676C98.7328 103.105 99.0501 103.437 99.4421 103.67C99.8434 103.894 100.277 104.006 100.744 104.006C101.22 104.006 101.654 103.894 102.046 103.67C102.447 103.437 102.765 103.105 102.998 102.676C103.231 102.237 103.348 101.724 103.348 101.136ZM115.553 97.188C116.15 97.188 116.682 97.314 117.149 97.566C117.616 97.8087 117.984 98.1773 118.255 98.672C118.526 99.1667 118.661 99.7687 118.661 100.478V105H117.401V100.66C117.401 99.8947 117.21 99.3113 116.827 98.91C116.454 98.4993 115.945 98.294 115.301 98.294C114.638 98.294 114.111 98.5087 113.719 98.938C113.327 99.358 113.131 99.9693 113.131 100.772V105H111.871V100.66C111.871 99.8947 111.68 99.3113 111.297 98.91C110.924 98.4993 110.415 98.294 109.771 98.294C109.108 98.294 108.581 98.5087 108.189 98.938C107.797 99.358 107.601 99.9693 107.601 100.772V105H106.327V97.328H107.601V98.434C107.853 98.0327 108.189 97.7247 108.609 97.51C109.038 97.2953 109.51 97.188 110.023 97.188C110.667 97.188 111.236 97.3327 111.731 97.622C112.226 97.9113 112.594 98.336 112.837 98.896C113.052 98.3547 113.406 97.9347 113.901 97.636C114.396 97.3373 114.946 97.188 115.553 97.188Z" fill="#221F1F"/>
<path d="M144 100H159.176L162.5 60L175.5 100L185 74L195.948 100L213.459 31L226.884 100L241.476 76.6761H280" stroke="#221F1F" stroke-width="2"/>
</svg>
