<svg width="20" height="20" viewBox="0 0 20 20" fill="none" xmlns="http://www.w3.org/2000/svg">
<g clip-path="url(#clip0_1_481)">
<path d="M10 20C15.5228 20 20 15.5228 20 10C20 4.47715 15.5228 0 10 0C4.47715 0 0 4.47715 0 10C0 15.5228 4.47715 20 10 20Z" fill="#3577E5"/>
<path d="M10.9333 15.9333V10.5333H12.7333L13 8.4H10.9333V7.06667C10.9333 6.46667 11.1333 6.06667 12 6.06667H13.1333V4.13333C12.9333 4.13333 12.2667 4.06667 11.5333 4.06667C9.93333 4.06667 8.8 5.06667 8.8 6.86667V8.4H7V10.5333H8.8V15.9333H10.9333Z" fill="white"/>
</g>
<defs>
<clipPath id="clip0_1_481">
<rect width="20" height="20" fill="white"/>
</clipPath>
</defs>
</svg>
