<svg width="300" height="32" viewBox="0 0 300 32" fill="none" xmlns="http://www.w3.org/2000/svg">
<line y1="15.5" x2="300" y2="15.5" stroke="#221F1F" stroke-opacity="0.1"/>
<rect x="132" width="37" height="32" fill="white"/>
<path d="M145.632 22.112C144.597 22.112 143.653 21.872 142.8 21.392C141.946 20.9013 141.269 20.224 140.768 19.36C140.277 18.4853 140.032 17.504 140.032 16.416C140.032 15.328 140.277 14.352 140.768 13.488C141.269 12.6133 141.946 11.936 142.8 11.456C143.653 10.9653 144.597 10.72 145.632 10.72C146.677 10.72 147.626 10.9653 148.48 11.456C149.333 11.936 150.005 12.608 150.496 13.472C150.986 14.336 151.232 15.3173 151.232 16.416C151.232 17.5147 150.986 18.496 150.496 19.36C150.005 20.224 149.333 20.9013 148.48 21.392C147.626 21.872 146.677 22.112 145.632 22.112ZM145.632 20.848C146.41 20.848 147.109 20.6667 147.728 20.304C148.357 19.9413 148.848 19.424 149.2 18.752C149.562 18.08 149.744 17.3013 149.744 16.416C149.744 15.52 149.562 14.7413 149.2 14.08C148.848 13.408 148.362 12.8907 147.744 12.528C147.125 12.1653 146.421 11.984 145.632 11.984C144.842 11.984 144.138 12.1653 143.52 12.528C142.901 12.8907 142.41 13.408 142.048 14.08C141.696 14.7413 141.52 15.52 141.52 16.416C141.52 17.3013 141.696 18.08 142.048 18.752C142.41 19.424 142.901 19.9413 143.52 20.304C144.149 20.6667 144.853 20.848 145.632 20.848ZM159.026 22L156.37 17.44H154.61V22H153.154V10.848H156.754C157.597 10.848 158.306 10.992 158.882 11.28C159.469 11.568 159.906 11.9573 160.194 12.448C160.482 12.9387 160.626 13.4987 160.626 14.128C160.626 14.896 160.402 15.5733 159.954 16.16C159.517 16.7467 158.855 17.136 157.97 17.328L160.77 22H159.026ZM154.61 16.272H156.754C157.543 16.272 158.135 16.08 158.53 15.696C158.925 15.3013 159.122 14.7787 159.122 14.128C159.122 13.4667 158.925 12.9547 158.53 12.592C158.146 12.2293 157.554 12.048 156.754 12.048H154.61V16.272Z" fill="#A1A8B0"/>
</svg>
