<svg width="300" height="249" viewBox="0 0 300 249" fill="none" xmlns="http://www.w3.org/2000/svg">
<path d="M300 235.303H0V235.482H300V235.303Z" fill="#EBEBEB"/>
<path d="M269.94 246.87H250.067V247.049H269.94V246.87Z" fill="#EBEBEB"/>
<path d="M198.732 248.82H193.516V248.999H198.732V248.82Z" fill="#EBEBEB"/>
<path d="M249.467 240.198H237.951V240.376H249.467V240.198Z" fill="#EBEBEB"/>
<path d="M57.3914 241.404H31.4756V241.583H57.3914V241.404Z" fill="#EBEBEB"/>
<path d="M66.5336 241.404H62.7338V241.583H66.5336V241.404Z" fill="#EBEBEB"/>
<path d="M135.088 244.439H78.8826V244.618H135.088V244.439Z" fill="#EBEBEB"/>
<path d="M142.209 203.254H26.3494C24.4612 203.254 22.9246 201.414 22.9246 199.153V4.10176C22.9246 1.84033 24.4612 0 26.3494 0H142.209C144.096 0 145.633 1.84033 145.633 4.10176V199.153C145.633 201.414 144.096 203.254 142.209 203.254ZM26.3494 0.180368C24.5434 0.180368 23.0746 1.9395 23.0746 4.10248V199.153C23.0746 201.316 24.5434 203.075 26.3494 203.075H142.209C144.014 203.075 145.483 201.316 145.483 199.153V4.10176C145.483 1.9395 144.014 0.17965 142.209 0.17965L26.3494 0.180368Z" fill="#EBEBEB"/>
<path d="M271.986 203.254H156.127C154.239 203.254 152.703 201.414 152.703 199.153V4.10176C152.703 1.84033 154.239 0 156.127 0H271.986C273.875 0 275.411 1.84033 275.411 4.10176V199.153C275.411 201.414 273.875 203.254 271.986 203.254ZM156.127 0.180368C154.322 0.180368 152.853 1.9395 152.853 4.10248V199.153C152.853 201.316 154.322 203.075 156.127 203.075H271.986C273.792 203.075 275.261 201.316 275.261 199.153V4.10176C275.261 1.9395 273.792 0.17965 271.986 0.17965L156.127 0.180368Z" fill="#EBEBEB"/>
<path d="M180.151 71.2445L275 71.2445V8.00007L180.151 8.00007V71.2445Z" fill="#E6E6E6"/>
<path d="M177.258 71.2445L273.648 71.2445V8.00007L177.258 8.00007V71.2445Z" fill="#F0F0F0"/>
<path d="M180.151 83.6572L275 83.6572V71.2448L180.151 71.2448V83.6572Z" fill="#E6E6E6"/>
<path d="M172.437 83.6572L268.827 83.6572V71.2448L172.437 71.2448V83.6572Z" fill="#F0F0F0"/>
<path d="M269.596 67.1192V12.1256L181.309 12.1256V67.1192L269.596 67.1192Z" fill="#FAFAFA"/>
<path d="M249.688 67.1199L238.412 12.1263H220.816L232.092 67.1199H249.688Z" fill="white"/>
<path d="M267.721 63.0134C267.881 63.0134 268.012 62.8816 268.012 62.719V14.8106C268.012 14.648 267.882 14.5162 267.721 14.5162C267.561 14.5162 267.431 14.648 267.431 14.8106V62.719C267.431 62.8816 267.561 63.0134 267.721 63.0134Z" fill="#F0F0F0"/>
<path d="M228.312 67.1199L217.036 12.1263H210.175L221.452 67.1199H228.312Z" fill="white"/>
<path d="M181.824 67.1192V12.1256H181.309V67.1192H181.824Z" fill="#E6E6E6"/>
<path opacity="0.6" d="M176.299 18.3454H271.148L271.521 13.7297H176.672L176.299 18.3454Z" fill="#EBEBEB"/>
<path opacity="0.6" d="M176.299 25.917H271.148L271.521 21.3013H176.672L176.299 25.917Z" fill="#EBEBEB"/>
<path opacity="0.6" d="M176.299 33.4884H271.148L271.521 28.8727H176.672L176.299 33.4884Z" fill="#EBEBEB"/>
<path opacity="0.6" d="M176.299 41.0604H271.148L271.521 36.4447H176.672L176.299 41.0604Z" fill="#EBEBEB"/>
<path opacity="0.6" d="M176.299 48.6314H271.148L271.521 44.0157H176.672L176.299 48.6314Z" fill="#EBEBEB"/>
<path opacity="0.6" d="M176.299 56.2036H271.148L271.521 51.5879H176.672L176.299 56.2036Z" fill="#EBEBEB"/>
<path d="M261.381 171.286H241.494V175.278H261.381V171.286Z" fill="#E6E6E6"/>
<path d="M203.983 217.281H207.654V125.412H203.983V217.281Z" fill="#E6E6E6"/>
<path d="M191.266 175.279H241.494V171.287H191.266V175.279Z" fill="#F5F5F5"/>
<path d="M261.381 193.133H241.494V197.125H261.381V193.133Z" fill="#E6E6E6"/>
<path d="M191.266 197.125H241.494V193.133H191.266V197.125Z" fill="#F5F5F5"/>
<path d="M261.381 127.594H241.494V131.586H261.381V127.594Z" fill="#E6E6E6"/>
<path d="M191.266 131.587H241.494V127.595H191.266V131.587Z" fill="#F5F5F5"/>
<path d="M261.381 149.44H241.494V153.432H261.381V149.44Z" fill="#E6E6E6"/>
<path d="M191.266 153.432H241.494V149.44H191.266V153.432Z" fill="#F5F5F5"/>
<path d="M254.21 217.281H257.881V125.411H254.21V217.281Z" fill="#E6E6E6"/>
<path d="M237.823 217.281H241.494V125.411H237.823V217.281Z" fill="#F5F5F5"/>
<path d="M191.265 217.281H194.937V125.411H191.265V217.281Z" fill="#F5F5F5"/>
<path d="M25.7307 217.282H63.3022L63.3022 143.057H25.7307L25.7307 217.282Z" fill="#E6E6E6"/>
<path d="M35.7642 217.281H25.7314V207.034H46.283L35.7642 217.281Z" fill="#FAFAFA"/>
<path d="M128.172 217.282H165.744V143.057H128.172V217.282Z" fill="#E6E6E6"/>
<path d="M25.7304 213.755H136.927V143.056H25.7304L25.7304 213.755Z" fill="#FAFAFA"/>
<path d="M126.895 217.282H136.928V207.035H116.376L126.895 217.282Z" fill="#FAFAFA"/>
<path d="M33.5134 187.093H129.144V169.401H33.5134V187.093Z" fill="#F0F0F0"/>
<path d="M33.5134 208.567H129.144V190.874H33.5134V208.567Z" fill="#F0F0F0"/>
<path d="M51.6916 171.292H110.969C112.708 171.292 114.119 169.856 114.119 168.084V167.868H48.5415V168.084C48.5415 169.856 49.952 171.292 51.6916 171.292Z" fill="#FAFAFA"/>
<path d="M33.5134 165.619H129.144V147.926H33.5134V165.619Z" fill="#F0F0F0"/>
<path d="M51.6916 149.817H110.969C112.708 149.817 114.119 148.381 114.119 146.609V146.393H48.5415V146.609C48.5415 148.381 49.952 149.817 51.6916 149.817Z" fill="#FAFAFA"/>
<path d="M51.6916 192.766H110.969C112.708 192.766 114.119 191.33 114.119 189.559V189.343H48.5415V189.559C48.5415 191.33 49.952 192.766 51.6916 192.766Z" fill="#FAFAFA"/>
<path d="M31.7158 71.2445L126.564 71.2445L126.564 8.00007L31.7158 8.00007L31.7158 71.2445Z" fill="#E6E6E6"/>
<path d="M28.8224 71.2445L125.212 71.2445L125.212 8.00007L28.8224 8.00007L28.8224 71.2445Z" fill="#F0F0F0"/>
<path d="M31.7158 83.6572L126.564 83.6572V71.2448L31.7158 71.2448V83.6572Z" fill="#E6E6E6"/>
<path d="M24.0002 83.6572L120.39 83.6572V71.2448L24.0002 71.2448V83.6572Z" fill="#F0F0F0"/>
<path d="M121.161 67.1199L121.161 12.1263L32.8743 12.1263L32.8743 67.1199L121.161 67.1199Z" fill="#FAFAFA"/>
<path d="M101.252 67.1199L89.9751 12.1263H72.3789L83.6556 67.1199H101.252Z" fill="white"/>
<path d="M119.285 63.0134C119.445 63.0134 119.575 62.8816 119.575 62.719V14.8106C119.575 14.648 119.445 14.5162 119.285 14.5162C119.125 14.5162 118.994 14.648 118.994 14.8106V62.719C118.995 62.8816 119.125 63.0134 119.285 63.0134Z" fill="#F0F0F0"/>
<path d="M79.8764 67.1199L68.5997 12.1263H61.7397L73.0165 67.1199H79.8764Z" fill="white"/>
<path d="M33.3887 67.1199L33.3887 12.1263H32.8732L32.8732 67.1199H33.3887Z" fill="#E6E6E6"/>
<path opacity="0.6" d="M27.8633 18.3454H122.712L123.085 13.7297H28.2364L27.8633 18.3454Z" fill="#EBEBEB"/>
<path opacity="0.6" d="M27.8633 20.9501H122.712L123.085 16.3337H28.2364L27.8633 20.9501Z" fill="#EBEBEB"/>
<path opacity="0.6" d="M27.8633 23.5541H122.712L123.085 18.9384H28.2364L27.8633 23.5541Z" fill="#EBEBEB"/>
<path opacity="0.6" d="M27.8633 26.1589H122.712L123.085 21.5425H28.2364L27.8633 26.1589Z" fill="#EBEBEB"/>
<path opacity="0.6" d="M27.8633 28.7629H122.712L123.085 24.1472H28.2364L27.8633 28.7629Z" fill="#EBEBEB"/>
<path opacity="0.6" d="M27.8633 31.3665H122.712L123.085 26.7509H28.2364L27.8633 31.3665Z" fill="#EBEBEB"/>
<path d="M46.8237 140.788H50.1025L50.1025 103.573H46.8237L46.8237 140.788Z" fill="#F5F5F5"/>
<path d="M47.2472 140.762H48.1724L48.1724 103.547H47.2472L47.2472 140.762Z" fill="#FAFAFA"/>
<path d="M48.5582 140.762H48.9219L48.9219 103.547H48.5582L48.5582 140.762Z" fill="#FAFAFA"/>
<path d="M36.3262 143.056H60.602C60.602 141.336 59.2327 139.942 57.5434 139.942H39.3847C37.6954 139.942 36.3262 141.336 36.3262 143.056Z" fill="#F0F0F0"/>
<path d="M42.5696 126.675C43.0886 126.675 43.5127 126.243 43.5127 125.715V101.315C43.5127 100.787 43.0879 100.355 42.5696 100.355C42.0505 100.355 41.6265 100.787 41.6265 101.315V125.715C41.6265 126.244 42.0505 126.675 42.5696 126.675Z" fill="#F0F0F0"/>
<path d="M33.7861 112.419H63.1409L59.7643 91.5315H37.1627L33.7861 112.419Z" fill="#E0E0E0"/>
<path d="M52.9216 82.9063L52.2344 82.965L53.1505 98.06L53.8377 98.0013L52.9216 82.9063Z" fill="#407BFF"/>
<path d="M54.321 105.79L53.6338 105.849L53.978 111.526L54.6652 111.467L54.321 105.79Z" fill="#407BFF"/>
<path d="M213.735 175.24H66.3079C62.9732 175.24 60.0489 171.996 59.8087 168.031L52.5646 48.4145C52.3244 44.4494 54.8563 41.2054 58.1909 41.2054H205.618C208.952 41.2054 211.877 44.4494 212.117 48.4145L219.361 168.031C219.6 171.996 217.069 175.24 213.735 175.24Z" fill="#407BFF"/>
<path d="M214.3 175.24H66.8734C63.5388 175.24 60.6145 171.996 60.3742 168.031L53.1302 48.4145C52.8899 44.4494 55.4218 41.2054 58.7565 41.2054H206.183C209.518 41.2054 212.442 44.4494 212.682 48.4145L219.926 168.031C220.166 171.996 217.635 175.24 214.3 175.24Z" fill="#407BFF"/>
<path opacity="0.5" d="M214.3 175.24H66.8734C63.5388 175.24 60.6145 171.996 60.3742 168.031L53.1302 48.4145C52.8899 44.4494 55.4218 41.2054 58.7565 41.2054H206.183C209.518 41.2054 212.442 44.4494 212.682 48.4145L219.926 168.031C220.166 171.996 217.635 175.24 214.3 175.24Z" fill="white"/>
<path d="M206.401 44.8105H58.9739C58.8073 44.8105 58.6428 44.8187 58.4803 44.8343C54.712 45.2034 55.4816 52.0185 59.2851 52.0185H206.963C210.766 52.0185 210.711 45.2034 206.898 44.8343C206.733 44.8187 206.567 44.8105 206.401 44.8105Z" fill="#407BFF"/>
<path d="M62.8143 48.4152C62.8694 49.3278 62.2925 50.0676 61.5242 50.0676C60.7566 50.0676 60.0896 49.3278 60.0345 48.4152C59.9794 47.5027 60.5563 46.7628 61.3246 46.7628C62.0928 46.7628 62.7592 47.5019 62.8143 48.4152Z" fill="#FAFAFA"/>
<path d="M67.5428 48.4152C67.5979 49.3278 67.021 50.0676 66.2527 50.0676C65.4852 50.0676 64.8181 49.3278 64.763 48.4152C64.708 47.5027 65.2848 46.7628 66.0531 46.7628C66.8207 46.7628 67.4877 47.5019 67.5428 48.4152Z" fill="#FAFAFA"/>
<path d="M72.2705 48.4152C72.3256 49.3278 71.748 50.0676 70.9805 50.0676C70.2129 50.0676 69.5458 49.3278 69.4901 48.4152C69.435 47.5027 70.0126 46.7628 70.7801 46.7628C71.5477 46.7628 72.2148 47.5019 72.2705 48.4152Z" fill="#FAFAFA"/>
<path d="M210.39 163.302H69.3343C68.1206 163.302 67.0653 162.132 66.9779 160.688L61.0204 62.3191C60.933 60.876 61.8465 59.7054 63.0602 59.7054H204.116C205.329 59.7054 206.385 60.8752 206.472 62.3191L212.43 160.688C212.517 162.132 211.603 163.302 210.39 163.302Z" fill="white"/>
<path d="M150.965 125.83L148.669 87.9146L141.711 82.9344H122.57L125.168 125.83H150.965Z" fill="white"/>
<path d="M150.966 126.227H125.17C124.995 126.227 124.85 126.067 124.837 125.859L122.239 82.9635C122.232 82.8538 122.265 82.745 122.328 82.6648C122.391 82.5837 122.479 82.5387 122.572 82.5387H141.713C141.773 82.5387 141.833 82.5583 141.885 82.596L148.842 87.5753C148.935 87.6416 148.995 87.7579 149.003 87.8864L151.299 125.801C151.306 125.911 151.273 126.02 151.21 126.1C151.147 126.181 151.058 126.227 150.966 126.227ZM125.48 125.434H150.608L148.35 88.1491L141.62 83.3319H122.93L125.48 125.434Z" fill="#407BFF"/>
<path d="M148.669 87.9138L141.711 82.9344L144.265 89.531L148.669 87.9138Z" fill="#EBEBEB"/>
<path d="M144.265 89.9277C144.138 89.9277 144.018 89.8401 143.963 89.6969L141.408 83.1011C141.347 82.9432 141.379 82.7558 141.488 82.6395C141.597 82.5233 141.758 82.5061 141.883 82.5953L148.841 87.5747C148.953 87.6549 149.015 87.8071 149 87.9626C148.984 88.1181 148.893 88.2474 148.767 88.2933L144.364 89.9105C144.332 89.9219 144.298 89.9277 144.265 89.9277ZM142.467 83.9392L144.446 89.0495L147.858 87.7965L142.467 83.9392Z" fill="#407BFF"/>
<path d="M133.369 102.261C133.426 103.218 132.821 103.994 132.016 103.994C131.21 103.994 130.512 103.218 130.454 102.261C130.396 101.304 131.001 100.529 131.806 100.529C132.611 100.529 133.311 101.304 133.369 102.261Z" fill="#407BFF"/>
<path d="M142.825 102.261C142.883 103.218 142.278 103.994 141.473 103.994C140.668 103.994 139.968 103.218 139.91 102.261C139.852 101.304 140.457 100.529 141.263 100.529C142.068 100.529 142.767 101.304 142.825 102.261Z" fill="#407BFF"/>
<path d="M145.492 113.499C145.318 113.499 145.172 113.339 145.159 113.131C144.991 110.345 141.316 108.079 136.967 108.079C134.086 108.079 131.5 109.097 130.217 110.736C129.646 111.465 129.382 112.251 129.432 113.073C129.445 113.292 129.307 113.482 129.123 113.497C128.938 113.511 128.779 113.348 128.766 113.13C128.704 112.094 129.036 111.079 129.728 110.195C131.133 108.399 133.907 107.285 136.967 107.285C141.737 107.285 145.628 109.828 145.825 113.073C145.838 113.291 145.7 113.481 145.516 113.497C145.507 113.499 145.499 113.499 145.492 113.499Z" fill="#407BFF"/>
<path d="M127.999 98.7503C127.917 98.7503 127.836 98.7151 127.771 98.6447C127.636 98.4957 127.628 98.2445 127.753 98.0841L129.216 96.2115C129.341 96.0503 129.552 96.0421 129.687 96.1902C129.822 96.3392 129.83 96.5904 129.705 96.7509L128.244 98.6234C128.177 98.7077 128.088 98.7503 127.999 98.7503Z" fill="#407BFF"/>
<path d="M144.807 98.7503C144.725 98.7503 144.644 98.7151 144.579 98.6439L142.89 96.7713C142.755 96.6223 142.748 96.3711 142.874 96.2107C142.999 96.0503 143.21 96.0421 143.345 96.191L145.034 98.0636C145.169 98.2126 145.176 98.4638 145.05 98.6242C144.985 98.7077 144.896 98.7503 144.807 98.7503Z" fill="#407BFF"/>
<path d="M120.488 134.306H122.044L124.288 137.853L124.074 134.306H125.644L126.032 140.717H124.461L122.229 137.197L122.442 140.717H120.875L120.488 134.306Z" fill="#407BFF"/>
<path d="M126.737 137.515C126.674 136.468 126.869 135.654 127.325 135.07C127.78 134.487 128.445 134.195 129.32 134.195C130.218 134.195 130.926 134.482 131.447 135.054C131.967 135.627 132.259 136.429 132.321 137.461C132.367 138.21 132.298 138.825 132.115 139.305C131.932 139.784 131.648 140.157 131.263 140.424C130.878 140.691 130.387 140.824 129.789 140.824C129.181 140.824 128.67 140.709 128.258 140.479C127.845 140.249 127.5 139.884 127.222 139.386C126.944 138.888 126.782 138.264 126.737 137.515ZM128.403 137.524C128.443 138.171 128.572 138.636 128.791 138.918C129.011 139.201 129.294 139.342 129.643 139.342C130.001 139.342 130.269 139.204 130.449 138.926C130.628 138.65 130.696 138.152 130.652 137.435C130.616 136.832 130.487 136.391 130.265 136.113C130.043 135.834 129.757 135.695 129.406 135.695C129.071 135.695 128.81 135.837 128.623 136.119C128.437 136.403 128.364 136.871 128.403 137.524Z" fill="#407BFF"/>
<path d="M135.56 134.306H138.036C138.524 134.306 138.922 134.384 139.233 134.542C139.542 134.699 139.805 134.925 140.019 135.219C140.233 135.514 140.396 135.856 140.508 136.247C140.62 136.638 140.689 137.052 140.716 137.489C140.757 138.174 140.724 138.705 140.615 139.083C140.507 139.46 140.344 139.777 140.126 140.032C139.909 140.287 139.669 140.456 139.407 140.541C139.049 140.658 138.721 140.716 138.425 140.716H135.949L135.56 134.306ZM137.314 135.758L137.526 139.261H137.934C138.283 139.261 138.527 139.215 138.669 139.123C138.811 139.032 138.916 138.871 138.986 138.642C139.055 138.413 139.074 138.042 139.043 137.529C139.002 136.85 138.881 136.385 138.679 136.134C138.478 135.884 138.161 135.759 137.729 135.759H137.314V135.758Z" fill="#407BFF"/>
<path d="M144.713 139.658H142.821L142.622 140.716H140.921L142.56 134.305H144.377L146.791 140.716H145.046L144.713 139.658ZM144.284 138.272L143.548 135.968L143.099 138.272H144.284Z" fill="#407BFF"/>
<path d="M146.036 134.306H151.101L151.196 135.889H149.497L149.79 140.717H148.124L147.831 135.889H146.133L146.036 134.306Z" fill="#407BFF"/>
<path d="M154.983 139.658H153.091L152.892 140.716H151.191L152.829 134.305H154.647L157.061 140.716H155.316L154.983 139.658ZM154.553 138.272L153.819 135.968L153.369 138.272H154.553Z" fill="#407BFF"/>
<path d="M224.207 70.5592C224.822 70.2451 225.556 69.8393 226.234 69.4601C226.924 69.0738 227.611 68.6708 228.287 68.2516C229.636 67.4063 230.995 66.5708 232.285 65.6427C234.889 63.8167 237.328 61.7903 239.523 59.5774C239.81 59.3096 240.055 59.0124 240.32 58.7293L240.713 58.3003L240.91 58.0858L241.008 57.9785C241.034 57.9505 241.028 57.9561 241.016 57.9729L240.994 58.0073C240.896 58.1944 240.977 58.1377 241.015 57.9568C241.061 57.783 241.1 57.4991 241.112 57.1921C241.156 55.9192 240.91 54.3147 240.61 52.7635C239.998 49.6197 239.07 46.3863 238.153 43.218L240.827 42.0236C242.503 45.0699 243.899 48.1814 245.035 51.5551C245.576 53.264 246.073 54.9799 246.219 57.0876C246.246 57.6246 246.257 58.1888 246.162 58.847C246.06 59.4947 245.9 60.2699 245.32 61.1489L245.205 61.3108L245.116 61.4286L245.01 61.5604L244.798 61.8225L244.373 62.3482C244.086 62.6945 243.813 63.0597 243.508 63.3842C241.135 66.0682 238.494 68.4388 235.675 70.5003C234.272 71.544 232.839 72.5351 231.35 73.4372C230.608 73.8943 229.857 74.3331 229.094 74.7585C228.321 75.1959 227.586 75.5765 226.707 75.9964L224.207 70.5592Z" fill="#FFB573"/>
<path d="M218.085 235.351C218.618 235.351 219.2 235.239 219.607 235.141C219.66 235.128 219.701 235.085 219.71 235.03C219.72 234.975 219.697 234.92 219.651 234.89C219.454 234.757 217.703 233.607 217.032 233.916C216.926 233.965 216.793 234.072 216.76 234.307C216.716 234.618 216.793 234.866 216.986 235.046C217.232 235.274 217.642 235.351 218.085 235.351ZM219.221 234.943C218.217 235.147 217.462 235.112 217.17 234.84C217.046 234.726 217 234.564 217.03 234.346C217.046 234.229 217.1 234.19 217.144 234.17C217.497 234.007 218.507 234.503 219.221 234.943Z" fill="#407BFF"/>
<path d="M219.576 235.145C219.599 235.145 219.623 235.139 219.645 235.126C219.687 235.101 219.713 235.056 219.713 235.006C219.713 234.934 219.705 233.244 219.078 232.679C218.911 232.529 218.717 232.467 218.5 232.493C218.158 232.535 218.065 232.755 218.04 232.881C217.91 233.542 218.958 234.809 219.508 235.126C219.529 235.139 219.552 235.145 219.576 235.145ZM218.595 232.765C218.707 232.765 218.806 232.805 218.897 232.887C219.271 233.224 219.399 234.173 219.431 234.736C218.882 234.29 218.229 233.338 218.308 232.935C218.321 232.87 218.359 232.791 218.533 232.769C218.553 232.767 218.574 232.765 218.595 232.765Z" fill="#407BFF"/>
<path d="M219.069 53.0264C218.398 56.5101 216.984 63.5665 219.379 65.8916C219.379 65.8916 218.443 69.4257 212.086 69.4257C205.095 69.4257 208.745 65.8923 208.745 65.8923C212.561 64.9642 212.462 62.0819 211.797 59.3748L219.069 53.0264Z" fill="#FFB573"/>
<path d="M207.408 67.2947C206.31 67.4461 207.244 64.5523 207.69 64.2524C208.72 63.5593 222.044 62.5781 221.957 64.2244C221.902 64.9329 221.575 66.3157 220.992 66.7852C220.409 67.2548 216.987 65.8356 207.408 67.2947Z" fill="#263238"/>
<path d="M209.579 66.3205C208.707 66.6204 208.79 63.7042 209.086 63.3531C209.773 62.5416 220.558 59.7207 220.878 61.3165C221.001 62.0054 221.06 63.3819 220.691 63.9166C220.321 64.4506 217.152 63.5669 209.579 66.3205Z" fill="#263238"/>
<path d="M205.568 46.7458C205.483 46.7507 205.398 46.7163 205.34 46.6441C204.569 45.684 203.567 45.7821 203.557 45.7835C203.405 45.7996 203.272 45.6896 203.256 45.5368C203.24 45.384 203.348 45.2467 203.498 45.2306C203.551 45.225 204.806 45.1009 205.763 46.2916C205.859 46.4108 205.842 46.586 205.725 46.6827C205.679 46.7219 205.623 46.7423 205.568 46.7458Z" fill="#263238"/>
<path d="M204.233 50.1763C204.233 50.1763 203.643 52.2837 202.873 53.3489C203.54 53.8683 204.553 53.4989 204.553 53.4989L204.233 50.1763Z" fill="#FF5652"/>
<path d="M204.568 49.3243C204.613 49.7953 204.405 50.2018 204.103 50.2326C203.8 50.2627 203.519 49.9053 203.473 49.4343C203.427 48.9634 203.636 48.5569 203.938 48.5261C204.24 48.4959 204.522 48.8534 204.568 49.3243Z" fill="#263238"/>
<path d="M204.074 48.539L202.932 48.3241C202.932 48.3241 203.587 49.1507 204.074 48.539Z" fill="#263238"/>
<path d="M226.281 235.006H220.515L220.967 221.41H226.733L226.281 235.006Z" fill="#FFB573"/>
<path d="M220.059 234.327H226.537C226.772 234.327 226.964 234.494 226.997 234.728L227.735 239.945C227.811 240.486 227.354 240.999 226.81 240.99C224.552 240.95 223.463 240.815 220.615 240.815C218.862 240.815 216.301 241 213.881 241C211.514 241 211.332 238.563 212.34 238.343C216.859 237.354 217.572 235.989 219.095 234.688C219.369 234.453 219.714 234.327 220.059 234.327Z" fill="#263238"/>
<g opacity="0.2">
<path d="M226.735 221.413H220.966L220.736 228.421H226.505L226.735 221.413Z" fill="black"/>
</g>
<path d="M203.339 74.0381C199.771 72.6159 196.368 71.0688 192.979 69.3039C189.595 67.541 186.264 65.6631 183.063 63.1544C182.266 62.5159 181.478 61.8177 180.707 61.0025C180.515 60.7923 180.323 60.5974 180.135 60.3563C179.936 60.1025 179.787 59.9532 179.529 59.5635C179.064 58.8822 178.704 57.9674 178.608 57.0338C178.518 56.0994 178.683 55.2071 178.946 54.4956C179.209 53.7716 179.554 53.1807 179.915 52.6683C180.638 51.6421 181.44 50.8837 182.248 50.2009C183.861 48.8418 185.567 47.8535 187.275 46.9296C188.129 46.4684 188.999 46.0527 189.88 45.67C190.766 45.281 191.629 44.9193 192.569 44.5898L193.791 47.2906C190.788 49.2175 187.678 51.3358 185.391 53.7106C184.836 54.2987 184.35 54.9141 184.044 55.4559C183.716 56.0076 183.72 56.4204 183.776 56.3889C183.804 56.3889 183.793 56.3763 183.873 56.4576L184.147 56.7569C184.251 56.8824 184.396 57.0106 184.526 57.1396C185.066 57.6534 185.7 58.1693 186.384 58.66C187.75 59.6504 189.256 60.5771 190.813 61.4427C192.365 62.3203 193.961 63.1601 195.587 63.957C198.831 65.5391 202.194 67.0615 205.495 68.4522L203.339 74.0381Z" fill="#FFB573"/>
<path d="M195.488 45.3766L196.442 43.2713L192.108 41.7393C192.108 41.7393 190.758 45.8763 192.367 47.7854C193.736 47.5618 194.907 46.6591 195.488 45.3766Z" fill="#FFB573"/>
<path d="M196.441 38.7189L192.976 37.702L192.107 41.7374L196.441 43.2701V38.7189Z" fill="#FFB573"/>
<path d="M241.185 43.4745L241.69 38.5547L237.224 39.6235C237.224 39.6235 237.158 44.2349 239.521 44.9701L241.185 43.4745Z" fill="#FFB573"/>
<path d="M239.538 35.1099L236.628 36.4933L237.223 39.6225L241.69 38.5538L239.538 35.1099Z" fill="#FFB573"/>
<path d="M219.975 46.1486C220.185 51.9714 220.396 54.4317 217.812 57.6904C213.925 62.5914 206.854 61.5807 204.94 55.9388C203.217 50.8604 203.162 42.1911 208.504 39.3298C213.767 36.512 219.765 40.3251 219.975 46.1486Z" fill="#FFB573"/>
<path d="M217.485 57.6791C223.099 55.209 226.792 50.0002 225.233 41.8559C223.742 34.0642 218.576 33.2946 216.442 34.9109C214.308 36.5273 208.988 34.1182 205.796 36.8533C200.265 41.5924 205.494 46.7016 208.218 49.729C209.845 53.1342 211.977 60.103 217.485 57.6791Z" fill="#263238"/>
<path d="M215.154 40.4579C217.048 43.2512 220.682 44.0398 223.27 42.2194C225.859 40.3998 226.421 36.6602 224.527 33.8669C222.632 31.0737 218.999 30.2851 216.41 32.1054C213.822 33.9251 213.26 37.6647 215.154 40.4579Z" fill="#407BFF"/>
<path d="M216.61 35.4567C215.8 30.7618 220.163 27.1414 225.997 28.8909C231.831 30.6405 228.745 35.9067 227.549 40.1124C226.352 44.3181 229.492 48.324 230.804 45.1207C232.116 41.918 229.911 40.929 229.911 40.929C229.911 40.929 236.106 42.5643 230.351 49.6747C224.596 56.7859 219.386 48.9338 220.795 44.2999C221.933 40.5554 217.376 39.8944 216.61 35.4567Z" fill="#263238"/>
<path d="M210.781 37.2305C208.117 35.8162 203.607 34.6725 201.04 39.0688C199.826 41.1475 200.296 43.967 200.296 43.967L208.136 44.4982L210.781 37.2305Z" fill="#263238"/>
<path d="M199.374 42.5884C199.37 42.5884 199.367 42.5884 199.363 42.5877C199.268 42.5821 199.196 42.4987 199.202 42.402C199.208 42.2829 199.398 39.4634 201.07 37.6945C205.11 33.4208 209.847 36.9656 211.203 38.1542C211.275 38.2173 211.283 38.3281 211.22 38.4016C211.158 38.4752 211.05 38.4829 210.977 38.4199C209.68 37.2824 205.149 33.8855 201.318 37.9377C199.735 39.612 199.546 42.3957 199.544 42.4237C199.54 42.5162 199.464 42.5884 199.374 42.5884Z" fill="#263238"/>
<path d="M209.176 49.4975C209.168 50.6315 208.669 51.7416 208.037 52.495C207.086 53.6275 205.995 53.0697 205.745 51.8138C205.52 50.6833 205.743 48.7322 206.946 48.0482C208.13 47.3747 209.186 48.201 209.176 49.4975Z" fill="#FFB573"/>
<path d="M207.937 102.833C207.937 102.833 208.304 143.589 211.776 166.3C214.581 184.644 219.771 227.065 219.771 227.065H227.634C227.634 227.065 228.402 186.112 226.978 167.969C223.376 122.058 232.672 113.475 225.171 102.833H207.937Z" fill="#263238"/>
<path opacity="0.1" d="M207.937 102.833C207.937 102.833 208.304 143.589 211.776 166.3C214.581 184.644 219.771 227.065 219.771 227.065H227.634C227.634 227.065 228.402 186.112 226.978 167.969C223.376 122.058 232.672 113.475 225.171 102.833H207.937Z" fill="white"/>
<path opacity="0.3" d="M212.07 121.322C214.831 133.624 212.628 152.998 211.12 161.529C209.523 148.575 208.718 131.787 208.318 119.486C209.743 117.13 211.093 116.976 212.07 121.322Z" fill="black"/>
<path d="M218.696 227.222H228.711L229.237 223.645L218.639 223.28L218.696 227.222Z" fill="#407BFF"/>
<path d="M221.553 68.4298C222.495 66.5225 227.56 65.3225 230.328 65.3267L232.4 74.6948C232.4 74.6948 226.884 83.0291 224.591 82.1452C221.882 81.1029 219.535 72.5163 221.553 68.4298Z" fill="#407BFF"/>
<path opacity="0.4" d="M221.553 68.4298C222.495 66.5225 227.56 65.3225 230.328 65.3267L232.4 74.6948C232.4 74.6948 226.884 83.0291 224.591 82.1452C221.882 81.1029 219.535 72.5163 221.553 68.4298Z" fill="black"/>
<path d="M215.716 224.932C215.741 224.891 215.743 224.838 215.72 224.795C215.694 224.743 215.637 224.713 215.579 224.723C215.29 224.767 212.742 225.179 212.397 225.92C212.331 226.063 212.34 226.215 212.424 226.358C212.565 226.597 212.764 226.731 213.015 226.757C213.85 226.845 215.056 225.665 215.7 224.955C215.706 224.947 215.711 224.94 215.716 224.932ZM212.659 226.009C212.894 225.616 214.212 225.254 215.218 225.065C214.31 226.005 213.51 226.529 213.042 226.48C212.878 226.462 212.753 226.375 212.658 226.214C212.62 226.151 212.616 226.097 212.644 226.038C212.649 226.028 212.654 226.018 212.659 226.009Z" fill="#407BFF"/>
<path d="M215.716 224.931C215.722 224.923 215.726 224.913 215.729 224.903C215.745 224.857 215.734 224.805 215.703 224.768C215.66 224.716 214.639 223.519 213.698 223.456C213.41 223.437 213.158 223.524 212.948 223.716C212.665 223.974 212.689 224.198 212.76 224.34C213.058 224.941 214.889 225.151 215.628 224.995C215.665 224.986 215.696 224.963 215.716 224.931ZM213.021 224.049C213.043 224.013 213.077 223.971 213.13 223.922C213.285 223.781 213.465 223.719 213.68 223.734C214.298 223.775 215.001 224.426 215.321 224.758C214.505 224.828 213.182 224.576 213.003 224.215C212.993 224.193 212.966 224.14 213.021 224.049Z" fill="#407BFF"/>
<path d="M221.726 222.445L216.453 224.831L214.102 219.85L211.031 213.329L210.671 212.57L215.939 210.182L216.347 211.035L219.324 217.351L221.726 222.445Z" fill="#FFB573"/>
<path opacity="0.2" d="M219.323 217.349L214.102 219.848L211.031 213.328L216.346 211.035L219.323 217.349Z" fill="black"/>
<path d="M201.753 102.833C201.753 102.833 184.905 145.475 189.472 165.555C193.599 183.703 211.847 218.071 211.847 218.071L218.904 214.464C218.904 214.464 207.622 172.977 206.398 163.964C204.017 146.428 219.323 121.674 219.323 102.833H201.753Z" fill="#263238"/>
<path opacity="0.1" d="M201.753 102.833C201.753 102.833 184.905 145.475 189.472 165.555C193.599 183.703 211.847 218.071 211.847 218.071L218.904 214.464C218.904 214.464 207.622 172.977 206.398 163.964C204.017 146.428 219.323 121.674 219.323 102.833H201.753Z" fill="white"/>
<path d="M215.511 224.084L220.748 220.202C220.939 220.06 221.19 220.08 221.352 220.25L224.965 224.028C225.339 224.419 225.266 225.108 224.821 225.426C222.972 226.747 222.014 227.29 219.711 228.997C218.294 230.047 215.47 232.369 213.513 233.82C211.6 235.238 210.044 233.377 210.732 232.594C213.814 229.087 214.463 226.918 214.941 224.953C215.027 224.599 215.232 224.29 215.511 224.084Z" fill="#263238"/>
<path d="M211.393 219.59L220.501 215.349L219.332 211.57L209.579 216.099L211.393 219.59Z" fill="#407BFF"/>
<path d="M206.224 67.9512C205.468 65.9598 198.888 63.7757 195.587 63.0131L194.137 74.0656C194.137 74.0656 199.528 81.9548 201.895 81.3022C204.69 80.5318 207.843 72.2179 206.224 67.9512Z" fill="#407BFF"/>
<path opacity="0.4" d="M206.224 67.9512C205.468 65.9598 198.888 63.7757 195.587 63.0131L194.137 74.0656C194.137 74.0656 199.528 81.9548 201.895 81.3022C204.69 80.5318 207.843 72.2179 206.224 67.9512Z" fill="black"/>
<path d="M198.996 67.3958C198.996 67.3958 196.249 68.3806 201.752 102.832C211.045 102.832 220.649 102.832 225.171 102.832C224.777 93.1269 224.766 87.1429 229.322 67.2254C229.322 67.2254 224.415 66.1383 219.377 65.8915C215.436 65.6981 212.207 65.5698 208.742 65.8922C204.176 66.3163 198.996 67.3958 198.996 67.3958Z" fill="#407BFF"/>
<path opacity="0.4" d="M198.996 67.3958C198.996 67.3958 196.249 68.3806 201.752 102.832C211.045 102.832 220.649 102.832 225.171 102.832C224.777 93.1269 224.766 87.1429 229.322 67.2254C229.322 67.2254 224.415 66.1383 219.377 65.8915C215.436 65.6981 212.207 65.5698 208.742 65.8922C204.176 66.3163 198.996 67.3958 198.996 67.3958Z" fill="black"/>
<path d="M225.523 101.433L226.579 103.567C226.661 103.732 226.468 103.901 226.197 103.901H201.637C201.426 103.901 201.251 103.796 201.238 103.661L201.027 101.526C201.012 101.379 201.195 101.253 201.426 101.253H225.141C225.316 101.254 225.47 101.326 225.523 101.433Z" fill="#407BFF"/>
<path opacity="0.3" d="M225.523 101.433L226.579 103.567C226.661 103.732 226.468 103.901 226.197 103.901H201.637C201.426 103.901 201.251 103.796 201.238 103.661L201.027 101.526C201.012 101.379 201.195 101.253 201.426 101.253H225.141C225.316 101.254 225.47 101.326 225.523 101.433Z" fill="white"/>
<path d="M222.337 104.132H222.972C223.098 104.132 223.195 104.066 223.186 103.985L222.888 101.213C222.879 101.131 222.769 101.065 222.642 101.065H222.007C221.881 101.065 221.785 101.132 221.794 101.213L222.091 103.985C222.1 104.066 222.211 104.132 222.337 104.132Z" fill="#263238"/>
<path d="M206.942 104.132H207.577C207.703 104.132 207.8 104.066 207.791 103.985L207.493 101.213C207.484 101.131 207.374 101.065 207.247 101.065H206.612C206.486 101.065 206.39 101.132 206.399 101.213L206.696 103.985C206.705 104.066 206.815 104.132 206.942 104.132Z" fill="#263238"/>
</svg>
