<svg width="31" height="31" viewBox="0 0 31 31" fill="none" xmlns="http://www.w3.org/2000/svg">
<g clip-path="url(#clip0_1_558)">
<path d="M7.75 5.16666H6.45833C5.77319 5.16666 5.11611 5.43883 4.63164 5.9233C4.14717 6.40777 3.875 7.06485 3.875 7.74999V12.2708C3.875 14.155 4.62347 15.9619 5.95576 17.2942C7.28805 18.6265 9.09502 19.375 10.9792 19.375C12.8633 19.375 14.6703 18.6265 16.0026 17.2942C17.3349 15.9619 18.0833 14.155 18.0833 12.2708V7.74999C18.0833 7.06485 17.8112 6.40777 17.3267 5.9233C16.8422 5.43883 16.1851 5.16666 15.5 5.16666H14.2083" stroke="white" stroke-width="2" stroke-linecap="round" stroke-linejoin="round"/>
<path d="M10.3334 19.375C10.3334 20.3927 10.5338 21.4005 10.9233 22.3408C11.3128 23.2811 11.8836 24.1354 12.6033 24.8551C13.323 25.5747 14.1773 26.1456 15.1176 26.5351C16.0579 26.9245 17.0656 27.125 18.0834 27.125C19.1011 27.125 20.1089 26.9245 21.0492 26.5351C21.9894 26.1456 22.8438 25.5747 23.5635 24.8551C24.2831 24.1354 24.854 23.2811 25.2434 22.3408C25.6329 21.4005 25.8334 20.3927 25.8334 19.375V15.5" stroke="white" stroke-width="2" stroke-linecap="round" stroke-linejoin="round"/>
<path d="M14.2084 3.875V6.45833" stroke="white" stroke-width="2" stroke-linecap="round" stroke-linejoin="round"/>
<path d="M7.75 3.875V6.45833" stroke="white" stroke-width="2" stroke-linecap="round" stroke-linejoin="round"/>
<path d="M25.8333 15.5C27.2601 15.5 28.4167 14.3434 28.4167 12.9167C28.4167 11.4899 27.2601 10.3333 25.8333 10.3333C24.4066 10.3333 23.25 11.4899 23.25 12.9167C23.25 14.3434 24.4066 15.5 25.8333 15.5Z" stroke="white" stroke-width="2" stroke-linecap="round" stroke-linejoin="round"/>
</g>
<defs>
<clipPath id="clip0_1_558">
<rect width="31" height="31" fill="white"/>
</clipPath>
</defs>
</svg>
